<?xml version="1.0" standalone="no"?>
<!DOCTYPE svg PUBLIC "-//W3C//DTD SVG 20010904//EN"
 "http://www.w3.org/TR/2001/REC-SVG-20010904/DTD/svg10.dtd">
<svg version="1.0" xmlns="http://www.w3.org/2000/svg"
 width="1500.000000pt" height="1500.000000pt" viewBox="0 0 1500.000000 1500.000000"
 preserveAspectRatio="xMidYMid meet">
<metadata>
Created by potrace 1.11, written by Peter Selinger 2001-2013
</metadata>
<g transform="translate(0.000000,1500.000000) scale(0.100000,-0.100000)"
fill="#000000" stroke="none">
<path d="M8548 14995 c-2 -1 -37 -5 -78 -9 -166 -14 -487 -81 -590 -123 -8 -3
-19 -7 -25 -8 -25 -6 -143 -48 -172 -61 -17 -8 -36 -14 -42 -14 -6 0 -19 -4
-29 -9 -9 -5 -30 -14 -47 -21 -16 -7 -43 -18 -60 -25 -16 -7 -70 -30 -120 -50
-133 -55 -375 -175 -375 -186 0 -5 -3 -8 -7 -7 -21 6 -443 -289 -594 -414 -24
-20 -87 -72 -139 -116 -132 -109 -366 -344 -443 -444 -10 -12 -29 -36 -42 -53
-14 -16 -30 -38 -38 -49 -12 -16 -16 -17 -38 -5 -13 7 -26 14 -29 15 -41 10
-117 59 -164 107 -33 33 -98 84 -144 114 -196 127 -655 320 -852 358 -109 21
-161 14 -290 -42 -63 -28 -167 -69 -230 -93 -63 -23 -121 -47 -127 -53 -7 -5
-13 -7 -13 -4 0 3 -34 -10 -76 -29 -41 -19 -81 -34 -89 -34 -7 0 -15 -3 -17
-7 -1 -5 -36 -23 -75 -42 -40 -19 -73 -38 -73 -43 0 -4 -5 -8 -12 -8 -18 0
-545 -359 -663 -452 -5 -4 -43 -34 -84 -65 -111 -85 -220 -188 -270 -254 -9
-12 -23 -29 -31 -38 -21 -23 -121 -173 -170 -256 -84 -141 -62 -125 -167 -121
-51 2 -114 0 -141 -5 -52 -8 -152 -48 -152 -61 0 -4 -5 -8 -10 -8 -34 0 -141
-141 -162 -213 -15 -52 -14 -49 -21 -67 -10 -26 -23 -156 -21 -217 2 -81 11
-139 35 -250 12 -51 11 -55 -39 -180 -76 -193 -118 -304 -131 -348 -7 -22 -17
-51 -23 -65 -21 -50 -28 -69 -121 -355 -52 -159 -98 -303 -101 -320 -5 -25
-15 -73 -41 -180 -4 -18 -11 -53 -21 -110 -2 -11 -6 -31 -8 -45 -3 -14 -8 -43
-11 -65 -3 -22 -7 -51 -10 -65 -2 -14 -7 -43 -10 -65 -3 -22 -7 -53 -10 -70
-2 -16 -7 -57 -11 -90 -3 -33 -8 -69 -9 -80 -2 -11 -6 -47 -10 -80 -3 -33 -9
-71 -12 -85 -2 -14 -6 -112 -7 -218 -3 -150 1 -214 14 -290 20 -108 45 -215
66 -279 7 -23 15 -52 18 -65 2 -13 9 -36 15 -52 10 -24 99 -358 105 -391 7
-38 45 -138 94 -245 15 -33 61 -109 72 -120 3 -3 21 -25 40 -50 56 -74 119
-131 215 -195 33 -22 179 -95 190 -95 3 0 30 -11 58 -24 29 -13 90 -40 137
-61 47 -20 117 -53 156 -73 39 -20 93 -48 120 -62 27 -14 51 -28 52 -32 2 -5
8 -8 12 -8 5 0 35 -15 67 -34 179 -104 295 -161 386 -190 9 -3 19 -6 22 -6 3
0 20 -6 38 -13 17 -8 73 -24 122 -37 50 -13 101 -31 115 -40 21 -15 140 -47
205 -56 29 -4 251 -4 320 0 56 4 134 11 230 21 90 10 233 43 253 58 6 5 12 7
12 4 0 -4 18 0 40 8 22 8 40 13 40 11 0 -1 -9 -38 -20 -80 -71 -277 -20 -530
140 -694 54 -56 59 -64 50 -87 -63 -166 -181 -672 -207 -890 -14 -109 -7 -358
12 -445 3 -14 8 -41 11 -60 3 -19 13 -62 21 -95 8 -33 17 -68 18 -78 6 -29 56
-166 92 -252 18 -44 33 -84 33 -91 0 -6 -21 -26 -47 -45 -59 -41 -219 -199
-259 -254 -16 -22 -31 -42 -34 -45 -31 -30 -178 -277 -250 -419 -56 -112 -147
-351 -134 -351 2 0 -1 -11 -6 -26 -6 -14 -12 -39 -15 -57 -3 -18 -8 -44 -11
-60 -10 -62 -21 -267 -14 -267 3 0 5 -57 6 -128 1 -117 10 -348 19 -467 2 -27
7 -101 10 -164 5 -105 4 -113 -11 -100 -11 9 -43 14 -93 14 -65 0 -81 -4 -112
-25 -30 -21 -140 -114 -183 -155 -35 -34 -116 -80 -178 -101 -39 -13 -86 -33
-104 -43 l-33 -19 -118 82 c-93 64 -127 82 -159 84 -124 9 -361 -189 -465
-388 -13 -25 -24 -47 -24 -50 -1 -3 -5 -12 -8 -20 -59 -136 -66 -310 -20 -469
28 -99 80 -192 158 -279 39 -44 184 -143 267 -181 135 -62 465 -158 621 -180
83 -12 324 -6 362 9 17 6 30 11 30 10 0 -1 18 1 40 5 127 22 230 68 405 183
63 41 117 77 120 81 3 3 21 18 40 32 41 31 52 40 158 138 44 41 104 88 134
104 64 35 297 127 388 151 183 51 287 151 319 307 10 52 8 161 -5 201 -3 11
-7 30 -8 41 -12 102 -96 284 -168 361 -21 23 -18 39 24 110 33 56 118 178 129
186 31 22 135 211 123 223 -3 3 32 5 78 5 85 0 251 10 278 17 8 2 35 7 60 10
110 16 365 84 448 121 28 12 52 21 52 19 0 -3 51 21 113 52 107 54 223 129
277 179 l25 23 100 -25 c55 -13 109 -26 120 -28 11 -2 40 -9 65 -15 69 -15
357 -64 460 -77 33 -4 109 -12 200 -20 170 -15 464 -5 630 22 54 9 156 25 195
30 17 2 93 16 210 38 17 4 42 8 56 11 143 26 416 105 594 170 55 20 105 38
110 39 13 2 74 26 250 94 147 57 183 72 305 129 41 19 93 42 115 51 22 8 45
19 51 23 21 16 149 78 153 74 2 -3 -1 -17 -8 -32 -6 -15 -13 -37 -16 -48 -2
-11 -11 -45 -19 -75 -9 -30 -16 -67 -16 -82 0 -18 -5 -28 -15 -28 -21 0 -131
-112 -198 -202 -31 -42 -57 -80 -57 -84 0 -4 -6 -15 -13 -23 -16 -19 -64 -138
-71 -175 -3 -14 -7 -30 -11 -35 -13 -22 -17 -191 -5 -242 34 -145 143 -254
294 -293 123 -32 308 -49 551 -48 106 0 207 -6 245 -13 64 -13 226 -59 265
-76 11 -5 55 -18 98 -29 42 -11 111 -29 154 -40 65 -18 120 -31 238 -56 49
-10 134 -24 181 -29 28 -3 61 -8 75 -10 61 -12 382 -5 428 10 10 3 30 8 43 10
79 16 128 29 128 37 0 4 3 7 8 6 19 -5 181 68 202 92 3 3 23 18 45 34 58 43
126 115 178 188 52 73 111 204 118 260 0 2 4 21 10 43 5 22 9 86 9 142 1 232
-90 430 -227 494 -66 32 -90 24 -203 -67 -25 -20 -74 -62 -110 -94 -134 -121
-128 -118 -202 -91 -29 10 -89 32 -134 49 -123 45 -219 56 -268 30 -16 -9 -23
-6 -38 12 -10 12 -18 34 -18 49 0 15 -3 31 -7 35 -5 4 -8 11 -9 14 -3 23 -33
74 -54 90 -32 25 -66 21 -127 -14 -54 -31 -50 -26 22 32 93 73 239 234 327
360 39 55 118 214 118 237 0 7 3 17 7 21 8 8 8 7 31 136 32 180 11 332 -60
445 -49 77 -189 225 -275 292 -40 30 -40 37 -8 79 14 18 25 36 25 39 0 3 11
21 24 38 13 18 45 74 70 124 26 51 51 95 57 98 5 4 9 15 9 26 0 11 6 30 14 42
28 45 86 215 122 357 18 74 25 105 29 138 3 20 8 48 10 62 30 176 22 566 -16
745 -30 143 -75 308 -101 375 -16 41 -31 82 -33 91 -6 27 -136 290 -177 358
-21 34 -38 65 -38 68 0 6 -130 196 -139 203 -4 3 -18 21 -31 40 -14 19 -32 42
-40 50 -8 9 -35 40 -60 69 -25 29 -68 78 -97 109 -29 31 -50 58 -48 60 2 3 50
6 107 8 104 3 141 7 258 25 93 14 97 15 187 38 121 31 329 123 478 212 106 62
250 127 322 144 82 20 109 28 155 49 60 28 125 83 162 139 14 20 23 37 20 37
-2 0 0 6 5 13 6 6 49 59 96 117 145 177 302 456 363 641 28 87 34 114 47 202
2 17 7 50 10 72 3 22 8 78 10 125 11 199 15 283 20 420 l5 144 58 59 c81 83
77 79 105 133 49 98 56 197 20 299 -14 39 -29 75 -34 81 -5 6 -6 14 -2 17 13
14 31 156 31 244 -1 102 -24 231 -64 351 -50 153 -213 451 -296 542 -8 8 -21
26 -30 40 -9 14 -24 34 -34 45 -11 11 -32 36 -48 55 -44 54 -185 209 -242 265
-240 237 -361 316 -629 412 -5 2 -59 16 -120 32 -94 25 -125 29 -210 26 -146
-4 -230 -33 -360 -124 -33 -22 -67 -46 -75 -51 -105 -68 -278 -185 -290 -195
-25 -22 -114 -111 -125 -126 -47 -63 -75 -170 -75 -290 0 -52 -3 -58 -46 -100
-165 -160 -235 -310 -229 -491 1 -51 5 -102 8 -113 3 -11 11 -36 16 -55 12
-38 98 -170 111 -170 5 0 11 -9 15 -19 9 -30 99 -117 142 -140 77 -39 170 -33
278 18 60 28 127 85 160 134 l17 27 34 -41 c22 -27 31 -45 25 -53 -19 -24 -44
-156 -46 -246 -3 -107 6 -170 42 -284 l24 -78 -26 -32 c-42 -51 -105 -144
-105 -154 0 -5 -6 -15 -13 -21 -11 -8 -27 -4 -70 19 -155 84 -377 128 -532
104 -16 -2 -66 -6 -110 -8 -80 -5 -149 -23 -193 -52 l-24 -16 18 34 c11 18 22
35 27 36 4 2 7 8 7 13 0 6 9 23 20 39 11 17 29 43 40 59 11 16 28 45 38 63 11
18 79 132 151 252 119 199 151 263 111 225 -8 -8 -33 -27 -55 -44 -22 -16 -44
-33 -50 -37 -152 -120 -228 -178 -230 -176 -2 2 -6 32 -9 68 -3 36 -12 97 -20
135 -8 38 -11 74 -6 80 11 14 82 234 121 375 39 139 46 283 17 336 -24 43 -72
82 -112 89 l-34 7 53 70 c29 38 58 81 66 96 7 15 22 38 32 51 34 47 113 246
123 310 3 20 8 47 10 61 31 154 22 498 -17 689 -6 30 -12 64 -14 75 -6 52 -54
222 -85 301 -4 11 -16 43 -26 70 -48 137 -215 453 -318 604 -28 40 -55 81 -61
89 -15 22 -33 45 -131 162 -168 201 -471 482 -639 595 -33 22 -62 42 -65 45
-9 9 -103 60 -201 109 -88 44 -119 57 -143 59 -5 0 -12 4 -15 9 -12 17 -251
86 -341 99 -19 2 -51 7 -70 11 -32 5 -416 13 -422 8z m-3841 -4032 c-3 -5 -8
-33 -12 -63 -4 -30 -9 -66 -12 -80 -2 -14 -5 -63 -7 -110 -4 -174 53 -317 169
-422 86 -78 334 -156 498 -158 19 0 26 -4 21 -11 -11 -18 -14 -320 -4 -340 15
-27 2 -28 -52 -2 -27 13 -93 36 -146 50 -83 22 -117 26 -231 26 l-135 -1 -51
39 c-82 62 -255 146 -337 163 -13 3 -41 10 -63 16 -114 29 -264 32 -313 6 -18
-9 -61 -19 -95 -22 -85 -6 -198 -24 -219 -36 -10 -5 -18 -5 -19 -1 -2 19 -9
146 -12 236 l-3 98 61 44 c59 42 125 109 125 126 0 5 3 9 8 9 4 0 16 18 26 40
22 47 35 59 67 65 54 11 66 14 114 25 28 6 57 13 65 15 40 10 165 56 210 79
29 14 56 26 61 26 19 0 195 120 253 173 20 17 41 24 33 10z"/>
</g>
</svg>
